<svg width="183" height="65" viewBox="0 0 183 65" fill="none" xmlns="http://www.w3.org/2000/svg">
<g clip-path="url(#clip0_1_4)">
<rect x="9.5" y="32.5" width="51" height="51" rx="8.75" transform="rotate(-45 9.5 32.5)" fill="#CCE1F6"/>
<path d="M90.2023 30.6825V17.287H99.8151V18.6828H91.7136V23.4669H98.9555V24.8459H91.7136V30.6825H90.2023Z" fill="#3385D9"/>
<path d="M102.141 18.6266V17H103.827V18.6266H102.141ZM102.237 30.6825V20.7879H103.709V30.6825H102.237Z" fill="#3385D9"/>
<path d="M106.748 30.6825V20.7878H108.22V22.5101C108.55 21.9089 109.04 21.4106 109.634 21.07C110.229 20.7294 110.906 20.5597 111.591 20.5796C112.103 20.5522 112.614 20.6345 113.092 20.8208C113.57 21.0071 114.002 21.2933 114.361 21.6602C115.063 22.4507 115.428 23.4852 115.378 24.542V30.6825H113.906V24.9022C113.948 24.114 113.693 23.3388 113.192 22.7296C112.935 22.4588 112.621 22.2475 112.274 22.1104C111.927 21.9734 111.553 21.9139 111.181 21.936C110.79 21.9238 110.4 21.9925 110.037 22.1378C109.673 22.283 109.344 22.5017 109.068 22.7803C108.784 23.0796 108.564 23.4334 108.42 23.8203C108.276 24.2072 108.212 24.6192 108.231 25.0316V30.6825H106.748Z" fill="#3385D9"/>
<path d="M119.013 26.3374C119.065 27.2534 119.467 28.1141 120.136 28.7407C120.773 29.3263 121.609 29.6446 122.473 29.63C123.062 29.6286 123.643 29.5036 124.18 29.2632C124.717 29.0228 125.198 28.6722 125.592 28.2341L126.507 29.0559C126.007 29.6458 125.383 30.1181 124.68 30.4391C123.977 30.7601 123.212 30.922 122.44 30.9132C121.79 30.9287 121.145 30.8097 120.544 30.5637C119.942 30.3177 119.398 29.95 118.945 29.4836C118.462 28.9923 118.085 28.4074 117.836 27.7648C117.586 27.1222 117.471 26.4354 117.496 25.7464C117.463 24.3956 117.95 23.0838 118.855 22.0823C119.274 21.6005 119.792 21.2163 120.374 20.9566C120.957 20.697 121.589 20.5683 122.226 20.5796C122.865 20.5506 123.502 20.6702 124.086 20.9289C124.671 21.1877 125.188 21.5786 125.597 22.0711C126.447 23.133 126.887 24.4652 126.839 25.8252C126.839 26.0166 126.839 26.1854 126.839 26.3374H119.013ZM119.013 25.1554H125.361C125.304 24.2794 124.972 23.444 124.412 22.769C124.139 22.4553 123.8 22.2073 123.419 22.0436C123.037 21.8798 122.624 21.8046 122.209 21.8234C121.804 21.8189 121.402 21.9004 121.03 22.0623C120.659 22.2243 120.325 22.4632 120.052 22.7634C119.442 23.4178 119.075 24.2623 119.013 25.1554V25.1554Z" fill="#3385D9"/>
<path d="M94.6744 48.3217C92.5793 48.3571 90.5498 47.5901 89 46.1773L90.7417 44.0948C91.8376 45.0923 93.2508 45.6686 94.7306 45.7214C95.2257 45.7466 95.7176 45.6274 96.1464 45.3781C96.3062 45.2754 96.4375 45.1337 96.5279 44.9664C96.6183 44.7991 96.6648 44.6115 96.6633 44.4213C96.6609 44.2303 96.6076 44.0435 96.5088 43.8802C96.41 43.7169 96.2693 43.583 96.1014 43.4926C95.4225 43.1331 94.6961 42.8716 93.944 42.7159C93.315 42.5669 92.6958 42.379 92.09 42.1531C91.6146 41.9619 91.1638 41.7144 90.7473 41.4157C90.3327 41.1245 90.0077 40.7229 89.809 40.2563C89.5973 39.7193 89.4961 39.145 89.5113 38.5678C89.5011 38.0162 89.6156 37.4695 89.8462 36.9685C90.0768 36.4675 90.4175 36.0252 90.8428 35.6748C91.7935 34.9034 92.9911 34.5035 94.2137 34.5491C96.0156 34.5112 97.7736 35.1088 99.1802 36.2376L97.6521 38.489C96.6554 37.7064 95.4441 37.247 94.18 37.172C93.732 37.142 93.2865 37.2585 92.9103 37.504C92.7688 37.6005 92.6536 37.7308 92.5751 37.8831C92.4966 38.0355 92.4574 38.205 92.4608 38.3764C92.4536 38.5752 92.5025 38.772 92.6019 38.9442C92.7013 39.1165 92.8471 39.2571 93.0227 39.3501C93.7676 39.7003 94.5498 39.9647 95.3542 40.1381C96.5186 40.3847 97.6141 40.8864 98.5622 41.6071C98.9155 41.9336 99.1916 42.3349 99.3705 42.7818C99.5493 43.2287 99.6264 43.71 99.596 44.1905C99.6242 44.7699 99.517 45.3479 99.2829 45.8785C99.0489 46.4091 98.6943 46.8776 98.2476 47.2467C97.219 48.0133 95.9544 48.3938 94.6744 48.3217Z" fill="#4F4F4F"/>
<path d="M101.765 48.1306V34.7351H111.877V37.3635H104.686V40.082H110.99V42.7048H104.686V45.519H111.945V48.1418L101.765 48.1306Z" fill="#4F4F4F"/>
<path d="M114.175 48.1306V34.7351H120.305C122.001 34.7351 123.301 35.1891 124.204 36.0971C124.591 36.51 124.89 36.9973 125.083 37.5294C125.276 38.0615 125.359 38.6274 125.327 39.1927C125.385 40.107 125.134 41.0141 124.614 41.7677C124.095 42.5214 123.336 43.0775 122.462 43.3465L125.726 48.1306H122.288L119.389 43.8474H117.142V48.1306H114.175ZM117.119 41.2415H120.097C120.704 41.285 121.306 41.0982 121.782 40.718C121.979 40.5416 122.134 40.3241 122.237 40.0809C122.339 39.8377 122.388 39.5749 122.378 39.3109C122.394 39.0413 122.347 38.7716 122.241 38.5234C122.134 38.2752 121.972 38.0553 121.766 37.8813C121.273 37.5368 120.68 37.3665 120.08 37.3973H117.159L117.119 41.2415Z" fill="#4F4F4F"/>
<path d="M131.485 48.226L126.08 34.718H129.328L132.822 44.1511L136.317 34.718H139.485L134.081 48.226H131.485Z" fill="#4F4F4F"/>
<path d="M141.306 48.1306V34.7351H144.244V48.1306H141.306Z" fill="#4F4F4F"/>
<path d="M153.452 48.3611C152.545 48.3845 151.643 48.2196 150.803 47.8767C149.963 47.5338 149.203 47.0203 148.57 46.3686C147.311 45.0394 146.609 43.2765 146.609 41.4438C146.609 39.6111 147.311 37.8483 148.57 36.519C149.613 35.5409 150.916 34.8848 152.322 34.6293C153.728 34.3737 155.178 34.5296 156.497 35.0782C157.331 35.488 158.09 36.0339 158.745 36.6935L156.986 38.7197C156.506 38.2676 155.963 37.8883 155.374 37.594C154.798 37.3434 154.175 37.2223 153.548 37.2394C153.025 37.2265 152.505 37.3286 152.025 37.5386C151.546 37.7487 151.118 38.0615 150.772 38.4552C150.062 39.2894 149.672 40.3501 149.672 41.4466C149.672 42.5432 150.062 43.6038 150.772 44.4381C151.117 44.8334 151.545 45.1477 152.024 45.3588C152.504 45.5699 153.024 45.6725 153.548 45.6595C154.187 45.677 154.822 45.546 155.402 45.2767C156.019 44.9659 156.587 44.5658 157.087 44.0892L158.958 46.0985C158.301 46.832 157.497 47.4187 156.599 47.8208C155.598 48.2166 154.527 48.4006 153.452 48.3611V48.3611Z" fill="#4F4F4F"/>
<path d="M160.919 48.1306V34.7351H171.032V37.3635H163.84V40.082H170.144V42.7048H163.84V45.519H171.099V48.1418L160.919 48.1306Z" fill="#4F4F4F"/>
<path d="M178.094 48.3217C175.999 48.3583 173.969 47.5911 172.419 46.1773L174.156 44.0948C175.26 45.0968 176.683 45.6732 178.173 45.7214C178.668 45.746 179.159 45.6268 179.588 45.3781C179.749 45.2771 179.881 45.1357 179.971 44.9678C180.061 44.8 180.105 44.6116 180.1 44.4213C180.101 44.233 180.052 44.0479 179.958 43.8847C179.864 43.7215 179.729 43.5862 179.566 43.4926C178.887 43.1331 178.161 42.8716 177.408 42.7159C176.779 42.5669 176.16 42.379 175.554 42.1531C175.078 41.9644 174.627 41.7167 174.212 41.4157C173.797 41.1245 173.472 40.7229 173.273 40.2563C173.062 39.7193 172.96 39.145 172.976 38.5678C172.957 38.0216 173.061 37.4782 173.28 36.9776C173.499 36.477 173.827 36.0318 174.24 35.6748C175.19 34.9034 176.388 34.5035 177.611 34.5491C179.413 34.5112 181.171 35.1088 182.577 36.2376L181.072 38.489C180.081 37.7004 178.873 37.2332 177.611 37.1494C177.163 37.1211 176.718 37.2375 176.341 37.4815C176.198 37.5936 176.085 37.7387 176.01 37.9043C175.935 38.0699 175.902 38.2511 175.912 38.4325C175.923 38.6139 175.977 38.7901 176.07 38.946C176.164 39.1018 176.293 39.2328 176.448 39.3276C177.193 39.6778 177.975 39.9422 178.779 40.1156C179.944 40.3622 181.039 40.8639 181.987 41.5846C182.339 41.912 182.615 42.3135 182.793 42.7602C182.972 43.2069 183.05 43.6876 183.021 44.168C183.049 44.7474 182.942 45.3254 182.708 45.856C182.474 46.3866 182.119 46.8551 181.673 47.2242C180.646 48.0001 179.378 48.3887 178.094 48.3217V48.3217Z" fill="#4F4F4F"/>
<rect x="-1.37868" y="32.5" width="48" height="48" rx="7.25" transform="rotate(-45 -1.37868 32.5)" fill="#3385D9" stroke="white" stroke-width="3"/>
<path d="M19.6664 40.8353V24.9458H31.0956V26.6015H21.4525V32.2763H30.0427V33.912H21.4525V40.8353H19.6664Z" fill="#086CD1"/>
<path d="M39.9657 41.0623C37.5607 41.0714 35.2433 40.159 33.488 38.5119L34.5943 37.1767C35.3456 37.8813 36.208 38.4565 37.1467 38.8791C38.0623 39.2525 39.0439 39.4364 40.0323 39.4199C40.9488 39.4635 41.853 39.1953 42.5981 38.6588C42.9095 38.4284 43.1607 38.1259 43.3301 37.7771C43.4996 37.4283 43.5822 37.0437 43.571 36.6559C43.5844 36.3024 43.5134 35.9508 43.3639 35.6303C43.2143 35.3099 42.9906 35.0297 42.7113 34.8133C41.7149 34.2013 40.6033 33.8013 39.4459 33.6383C37.9769 33.4055 36.5813 32.8366 35.3674 31.9759C34.9462 31.6095 34.6148 31.151 34.3987 30.6359C34.1826 30.1207 34.0877 29.5627 34.1211 29.0049C34.1115 28.4079 34.2393 27.8166 34.4948 27.277C34.7502 26.7375 35.1263 26.2641 35.5939 25.8938C36.6542 25.0518 37.9806 24.6184 39.3326 24.6721C41.3602 24.6487 43.3317 25.3385 44.9039 26.6215L43.8643 28.0035C42.59 26.9041 40.9675 26.2937 39.2859 26.281C38.4098 26.2383 37.5458 26.5 36.8401 27.0221C36.5481 27.2371 36.3117 27.519 36.1506 27.8442C35.9894 28.1694 35.9083 28.5284 35.9138 28.8914C35.8993 29.2514 35.9731 29.6094 36.1288 29.9342C36.2845 30.2589 36.5173 30.5404 36.8068 30.7541C37.8536 31.3808 39.0128 31.7959 40.2189 31.9759C41.6389 32.2076 42.984 32.7727 44.1442 33.6249C44.5562 33.9809 44.8819 34.4263 45.0967 34.9271C45.3115 35.428 45.4096 35.9712 45.3837 36.5157C45.4131 37.1521 45.2906 37.7862 45.0263 38.3656C44.7621 38.945 44.3637 39.4529 43.8643 39.8472C42.7466 40.6965 41.3671 41.1264 39.9657 41.0623Z" fill="#086CD1"/>
<path d="M19 40.1676V24.2781H30.4292V25.9338H20.786V31.6086H29.3762V33.2443H20.786V40.1676H19Z" fill="white"/>
<path d="M39.2993 40.3947C36.8943 40.4038 34.5769 39.4914 32.8217 37.8443L33.9279 36.5091C34.6792 37.2137 35.5416 37.7889 36.4803 38.2115C37.396 38.5849 38.3775 38.7688 39.3659 38.7523C40.2824 38.7959 41.1867 38.5277 41.9317 37.9912C42.2431 37.7608 42.4943 37.4583 42.6638 37.1095C42.8332 36.7607 42.9158 36.376 42.9046 35.9883C42.918 35.6348 42.847 35.2832 42.6975 34.9627C42.548 34.6423 42.3243 34.3621 42.045 34.1457C41.0485 33.5337 39.9369 33.1337 38.7795 32.9707C37.3105 32.7379 35.9149 32.169 34.701 31.3083C34.2798 30.9419 33.9484 30.4834 33.7324 29.9683C33.5163 29.4531 33.4213 28.8951 33.4548 28.3373C33.4451 27.7403 33.573 27.149 33.8284 26.6094C34.0838 26.0699 34.4599 25.5965 34.9276 25.2262C35.9879 24.3842 37.3142 23.9508 38.6662 24.0044C40.6938 23.9811 42.6654 24.6709 44.2375 25.9539L43.1979 27.3359C41.9237 26.2365 40.3012 25.6261 38.6195 25.6134C37.7434 25.5707 36.8794 25.8324 36.1738 26.3545C35.8818 26.5695 35.6453 26.8514 35.4842 27.1766C35.323 27.5018 35.2419 27.8608 35.2474 28.2238C35.2329 28.5838 35.3068 28.9418 35.4624 29.2666C35.6181 29.5913 35.8509 29.8728 36.1404 30.0865C37.1872 30.7132 38.3464 31.1283 39.5525 31.3083C40.9725 31.54 42.3176 32.1051 43.4778 32.9573C43.8898 33.3133 44.2155 33.7587 44.4303 34.2595C44.6451 34.7604 44.7432 35.3036 44.7173 35.8481C44.7467 36.4844 44.6242 37.1186 44.3599 37.698C44.0957 38.2774 43.6973 38.7853 43.1979 39.1796C42.0802 40.0289 40.7007 40.4588 39.2993 40.3947Z" fill="white"/>
</g>
<defs>
<clipPath id="clip0_1_4">
<rect width="183" height="65" fill="white"/>
</clipPath>
</defs>
</svg>
