<svg width="113" height="30" viewBox="0 0 113 30" fill="none" xmlns="http://www.w3.org/2000/svg">
<g clip-path="url(#clip0_301_400)">
<path d="M14.7279 30C22.8619 30 29.4558 23.2843 29.4558 15C29.4558 6.71574 22.8619 0 14.7279 0C6.59391 0 0 6.71574 0 15C0 23.2843 6.59391 30 14.7279 30Z" fill="#4EB964"/>
<path d="M11.8039 8.1817H14.728L10.7267 22.2726H8.03345L11.8039 8.1817ZM18.4985 8.1817H21.4225L17.652 22.2726H14.728L18.4985 8.1817Z" fill="#4F4F4F"/>
<path d="M44.5598 10.5539L46.9407 16.6552L47.4783 18.6889H47.5551L47.9391 16.6552L49.7823 10.6321H51.3184L47.8623 21.2703H47.0943L44.4061 14.3868L44.0221 12.6659H43.9453L43.5613 14.3868L40.95 21.2703H40.182L36.5723 10.5539H38.3388L40.3356 16.577L40.7196 18.6108L41.1805 16.577L43.3309 10.5539H44.5598Z" fill="#595A5C"/>
<path d="M60.2277 20.1751C59.8437 20.488 59.306 20.8009 58.6916 20.9573C58.0772 21.1138 57.386 21.2702 56.6947 21.2702C55.9267 21.2702 55.2355 21.1138 54.6979 20.8792C54.1603 20.6445 53.6227 20.2534 53.3154 19.784C52.9315 19.3147 52.701 18.7672 52.4706 18.0632C52.317 17.3592 52.2402 16.6552 52.2402 15.7948C52.2402 13.9957 52.6243 12.6659 53.3923 11.7272C54.1603 10.7885 55.3123 10.3192 56.6947 10.3192C57.1556 10.3192 57.6164 10.3975 58.0772 10.4756C58.538 10.5539 58.9221 10.7885 59.3061 11.1014C59.69 11.4143 59.9973 11.8054 60.2277 12.353C60.4581 12.9005 60.6117 13.6045 60.6117 14.465C60.6117 14.9343 60.5349 15.4036 60.4581 15.9512H53.9299C53.9299 16.577 54.0067 17.1245 54.0835 17.5939C54.2371 18.0632 54.3907 18.4543 54.6211 18.7672C54.8515 19.0801 55.2355 19.3147 55.6195 19.5494C56.0036 19.7058 56.5412 19.784 57.1556 19.784C57.6164 19.784 58.0772 19.7058 58.538 19.5494C58.9989 19.393 59.3829 19.1582 59.6132 19.0018L60.2277 20.1751ZM56.6947 11.8054C55.9267 11.8054 55.2355 12.0401 54.7747 12.4312C54.3139 12.8223 54.0067 13.6045 53.9299 14.6214H58.9989C58.9989 13.6045 58.7684 12.8223 58.3844 12.4312C58.0004 11.9619 57.4628 11.8054 56.6947 11.8054Z" fill="#595A5C"/>
<path d="M62.9155 6.40814H64.5285V11.5707H64.605C64.9124 11.1796 65.2964 10.8667 65.834 10.6321C66.2945 10.3974 66.8322 10.3192 67.447 10.3192C68.7526 10.3192 69.7508 10.7885 70.4421 11.649C71.1335 12.5094 71.4409 13.8391 71.4409 15.6382C71.4409 17.4373 70.9798 18.8454 70.1347 19.784C69.2903 20.7226 68.0612 21.192 66.4482 21.192C65.6803 21.192 64.989 21.1138 64.3747 20.9573C63.7605 20.8009 63.2994 20.6445 62.992 20.4098V6.40814H62.9155ZM67.1396 11.8054C66.4482 11.8054 65.9106 11.9619 65.4501 12.3529C64.989 12.7441 64.6822 13.2916 64.5285 13.9956V19.2364C64.7587 19.3929 65.0661 19.4711 65.4501 19.5493C65.834 19.6276 66.218 19.6276 66.6019 19.6276C67.5236 19.6276 68.2915 19.3147 68.8291 18.6107C69.3668 17.9067 69.6742 16.8898 69.6742 15.4818C69.6742 14.9343 69.5971 14.4649 69.5205 13.9956C69.444 13.5263 69.2903 13.1352 69.06 12.8223C68.8291 12.5094 68.5989 12.1965 68.2915 12.04C67.9847 11.8836 67.6007 11.8054 67.1396 11.8054Z" fill="#595A5C"/>
<path d="M78.5064 18.1417C78.5064 17.7506 78.3533 17.4377 78.1225 17.1248C77.8922 16.8901 77.5848 16.6555 77.2009 16.499C76.8169 16.3426 76.433 16.1861 76.049 16.0297C75.5879 15.8732 75.2039 15.7168 74.8971 15.4822C74.5132 15.2475 74.2058 14.9346 73.9755 14.6217C73.7446 14.2306 73.5915 13.7612 73.5915 13.1355C73.5915 12.1186 73.8983 11.4146 74.436 10.9453C74.9737 10.4759 75.7416 10.2413 76.7404 10.2413C77.5083 10.2413 78.1225 10.3195 78.5836 10.4759C79.0441 10.6324 79.5052 10.7888 79.8892 10.9453L79.5052 12.3533C79.1978 12.1969 78.8138 12.0404 78.3533 11.9621C77.8922 11.8057 77.4311 11.8057 76.8941 11.8057C76.2792 11.8057 75.8187 11.884 75.5879 12.1186C75.2811 12.3533 75.2039 12.6662 75.2039 13.2137C75.2039 13.6048 75.3576 13.8395 75.5879 14.0741C75.8187 14.3088 76.1255 14.4653 76.5095 14.6217C76.8941 14.7782 77.278 14.9346 77.662 15.091C78.1225 15.2475 78.5064 15.4822 78.8139 15.7168C79.1978 15.9515 79.5052 16.2644 79.7355 16.6555C79.9657 17.0466 80.1194 17.5159 80.1194 18.1417C80.1194 18.611 80.0429 19.0021 79.8892 19.3932C79.7355 19.7843 79.5052 20.0972 79.1978 20.4101C78.8904 20.723 78.5064 20.8794 78.0459 21.0359C77.5848 21.1923 77.0472 21.2705 76.5095 21.2705C75.7416 21.2705 75.0502 21.1923 74.5132 21.0359C73.9755 20.8794 73.5144 20.723 73.1304 20.4883L73.5915 19.0804C73.8983 19.2368 74.2823 19.3932 74.82 19.5497C75.3576 19.7061 75.8187 19.7843 76.3564 19.7843C76.9706 19.7843 77.4311 19.6278 77.8157 19.3932C78.1996 19.1585 78.5064 18.7675 78.5064 18.1417Z" fill="#595A5C"/>
<path d="M81.2714 10.5539H82.8843V8.5201L84.4973 8.05078V10.5539H87.2622V12.0401H84.4973V17.8284C84.4973 18.5325 84.5739 19.08 84.7276 19.3929C84.8813 19.7058 85.1887 19.8622 85.6492 19.8622C86.0332 19.8622 86.3406 19.8622 86.5708 19.784C86.8017 19.7058 87.1085 19.6275 87.4159 19.4711L87.7998 20.7227C87.4159 20.8791 87.0319 21.0356 86.5708 21.192C86.1103 21.2702 85.6492 21.3485 85.1887 21.3485C84.3436 21.3485 83.806 21.1138 83.422 20.6444C83.1146 20.1751 82.8843 19.3929 82.8843 18.2196V12.1183H81.2714V10.5539Z" fill="#595A5C"/>
<path d="M92.5617 17.281L93.0993 19.3147H93.1765L93.637 17.281L95.6339 10.5539H97.2469L94.2512 19.9405C94.021 20.6445 93.7907 21.2703 93.5605 21.8961C93.3296 22.5219 93.0993 23.0694 92.7919 23.6169C92.4851 24.0863 92.1777 24.4774 91.8703 24.7903C91.5635 25.1032 91.1024 25.2596 90.7185 25.2596C90.2579 25.2596 89.7968 25.1814 89.4894 25.0249L89.7968 23.6169C89.9505 23.6952 90.1808 23.6952 90.3345 23.6952C90.7184 23.6952 91.1024 23.4605 91.4098 23.0694C91.7938 22.6783 92.024 21.9742 92.2543 20.9574L88.1073 10.5539H89.9505L92.5617 17.281Z" fill="#595A5C"/>
<path d="M100.856 18.4545C100.856 18.9239 100.933 19.315 101.086 19.4714C101.24 19.7061 101.47 19.7843 101.778 19.7843C101.931 19.7843 102.162 19.7843 102.315 19.7061C102.546 19.7061 102.776 19.6279 103.006 19.5496L103.16 20.8794C102.93 20.9577 102.622 21.1141 102.238 21.1141C101.854 21.1923 101.547 21.1923 101.24 21.1923C100.625 21.1923 100.088 21.0358 99.7037 20.6448C99.3197 20.2536 99.0895 19.7061 99.0895 18.8457V6.3302H100.702V18.4545H100.856Z" fill="#595A5C"/>
<path d="M112.53 20.1751C112.146 20.488 111.609 20.8009 110.994 20.9573C110.38 21.1138 109.688 21.2702 108.997 21.2702C108.229 21.2702 107.538 21.1138 107.001 20.8792C106.463 20.6445 105.925 20.2534 105.618 19.784C105.234 19.3147 105.004 18.7672 104.773 18.0632C104.62 17.3592 104.543 16.6552 104.543 15.7948C104.543 13.9957 104.927 12.6659 105.694 11.7272C106.463 10.7885 107.615 10.3192 108.997 10.3192C109.458 10.3192 109.919 10.3975 110.38 10.4756C110.84 10.5539 111.225 10.7885 111.609 11.1014C111.993 11.4143 112.299 11.8054 112.53 12.353C112.761 12.9005 112.914 13.6045 112.914 14.465C112.914 14.9343 112.837 15.4036 112.761 15.9512H106.232C106.232 16.577 106.309 17.1245 106.386 17.5939C106.539 18.0632 106.693 18.4543 106.923 18.7672C107.154 19.0801 107.538 19.3147 107.922 19.5494C108.306 19.7058 108.844 19.784 109.458 19.784C109.919 19.784 110.38 19.7058 110.84 19.5494C111.301 19.393 111.685 19.1582 111.915 19.0018L112.53 20.1751ZM108.997 11.8054C108.229 11.8054 107.538 12.0401 107.077 12.4312C106.616 12.8223 106.309 13.6045 106.232 14.6214H111.301C111.301 13.6045 111.071 12.8223 110.687 12.4312C110.303 11.9619 109.688 11.8054 108.997 11.8054Z" fill="#595A5C"/>
<path d="M11.8039 8.1817H14.728L10.7267 22.2726H8.03345L11.8039 8.1817ZM18.4985 8.1817H21.4225L17.652 22.2726H14.728L18.4985 8.1817Z" fill="white"/>
<path d="M44.5598 10.5539L46.9407 16.6552L47.4783 18.6889H47.5551L47.9391 16.6552L49.7823 10.6321H51.3184L47.8623 21.2703H47.0943L44.4061 14.3868L44.0221 12.6659H43.9453L43.5613 14.3868L40.95 21.2703H40.182L36.5723 10.5539H38.3388L40.3356 16.577L40.7196 18.6108L41.1805 16.577L43.3309 10.5539H44.5598Z" fill="#E0E0E0"/>
<path d="M60.2277 20.1751C59.8437 20.488 59.306 20.8009 58.6916 20.9573C58.0772 21.1138 57.386 21.2702 56.6947 21.2702C55.9267 21.2702 55.2355 21.1138 54.6979 20.8792C54.1603 20.6445 53.6227 20.2534 53.3154 19.784C52.9315 19.3147 52.701 18.7672 52.4706 18.0632C52.317 17.3592 52.2402 16.6552 52.2402 15.7948C52.2402 13.9957 52.6243 12.6659 53.3923 11.7272C54.1603 10.7885 55.3123 10.3192 56.6947 10.3192C57.1556 10.3192 57.6164 10.3975 58.0772 10.4756C58.538 10.5539 58.9221 10.7885 59.3061 11.1014C59.69 11.4143 59.9973 11.8054 60.2277 12.353C60.4581 12.9005 60.6117 13.6045 60.6117 14.465C60.6117 14.9343 60.5349 15.4036 60.4581 15.9512H53.9299C53.9299 16.577 54.0067 17.1245 54.0835 17.5939C54.2371 18.0632 54.3907 18.4543 54.6211 18.7672C54.8515 19.0801 55.2355 19.3147 55.6195 19.5494C56.0036 19.7058 56.5412 19.784 57.1556 19.784C57.6164 19.784 58.0772 19.7058 58.538 19.5494C58.9989 19.393 59.3829 19.1582 59.6132 19.0018L60.2277 20.1751ZM56.6947 11.8054C55.9267 11.8054 55.2355 12.0401 54.7747 12.4312C54.3139 12.8223 54.0067 13.6045 53.9299 14.6214H58.9989C58.9989 13.6045 58.7684 12.8223 58.3844 12.4312C58.0004 11.9619 57.4628 11.8054 56.6947 11.8054Z" fill="#E0E0E0"/>
<path d="M62.9155 6.40814H64.5285V11.5707H64.605C64.9124 11.1796 65.2964 10.8667 65.834 10.6321C66.2945 10.3974 66.8322 10.3192 67.447 10.3192C68.7526 10.3192 69.7508 10.7885 70.4421 11.649C71.1335 12.5094 71.4409 13.8391 71.4409 15.6382C71.4409 17.4373 70.9798 18.8454 70.1347 19.784C69.2903 20.7226 68.0612 21.192 66.4482 21.192C65.6803 21.192 64.989 21.1138 64.3747 20.9573C63.7605 20.8009 63.2994 20.6445 62.992 20.4098V6.40814H62.9155ZM67.1396 11.8054C66.4482 11.8054 65.9106 11.9619 65.4501 12.3529C64.989 12.7441 64.6822 13.2916 64.5285 13.9956V19.2364C64.7587 19.3929 65.0661 19.4711 65.4501 19.5493C65.834 19.6276 66.218 19.6276 66.6019 19.6276C67.5236 19.6276 68.2915 19.3147 68.8291 18.6107C69.3668 17.9067 69.6742 16.8898 69.6742 15.4818C69.6742 14.9343 69.5971 14.4649 69.5205 13.9956C69.444 13.5263 69.2903 13.1352 69.06 12.8223C68.8291 12.5094 68.5989 12.1965 68.2915 12.04C67.9847 11.8836 67.6007 11.8054 67.1396 11.8054Z" fill="#E0E0E0"/>
<path d="M78.5064 18.1417C78.5064 17.7506 78.3533 17.4377 78.1225 17.1248C77.8922 16.8901 77.5848 16.6555 77.2009 16.499C76.8169 16.3426 76.433 16.1861 76.049 16.0297C75.5879 15.8732 75.2039 15.7168 74.8971 15.4822C74.5132 15.2475 74.2058 14.9346 73.9755 14.6217C73.7446 14.2306 73.5915 13.7612 73.5915 13.1355C73.5915 12.1186 73.8983 11.4146 74.436 10.9453C74.9737 10.4759 75.7416 10.2413 76.7404 10.2413C77.5083 10.2413 78.1225 10.3195 78.5836 10.4759C79.0441 10.6324 79.5052 10.7888 79.8892 10.9453L79.5052 12.3533C79.1978 12.1969 78.8138 12.0404 78.3533 11.9621C77.8922 11.8057 77.4311 11.8057 76.8941 11.8057C76.2792 11.8057 75.8187 11.884 75.5879 12.1186C75.2811 12.3533 75.2039 12.6662 75.2039 13.2137C75.2039 13.6048 75.3576 13.8395 75.5879 14.0741C75.8187 14.3088 76.1255 14.4653 76.5095 14.6217C76.8941 14.7782 77.278 14.9346 77.662 15.091C78.1225 15.2475 78.5064 15.4822 78.8139 15.7168C79.1978 15.9515 79.5052 16.2644 79.7355 16.6555C79.9657 17.0466 80.1194 17.5159 80.1194 18.1417C80.1194 18.611 80.0429 19.0021 79.8892 19.3932C79.7355 19.7843 79.5052 20.0972 79.1978 20.4101C78.8904 20.723 78.5064 20.8794 78.0459 21.0359C77.5848 21.1923 77.0472 21.2705 76.5095 21.2705C75.7416 21.2705 75.0502 21.1923 74.5132 21.0359C73.9755 20.8794 73.5144 20.723 73.1304 20.4883L73.5915 19.0804C73.8983 19.2368 74.2823 19.3932 74.82 19.5497C75.3576 19.7061 75.8187 19.7843 76.3564 19.7843C76.9706 19.7843 77.4311 19.6278 77.8157 19.3932C78.1996 19.1585 78.5064 18.7675 78.5064 18.1417Z" fill="#E0E0E0"/>
<path d="M81.2714 10.5539H82.8843V8.5201L84.4973 8.05078V10.5539H87.2622V12.0401H84.4973V17.8284C84.4973 18.5325 84.5739 19.08 84.7276 19.3929C84.8813 19.7058 85.1887 19.8622 85.6492 19.8622C86.0332 19.8622 86.3406 19.8622 86.5708 19.784C86.8017 19.7058 87.1085 19.6275 87.4159 19.4711L87.7998 20.7227C87.4159 20.8791 87.0319 21.0356 86.5708 21.192C86.1103 21.2702 85.6492 21.3485 85.1887 21.3485C84.3436 21.3485 83.806 21.1138 83.422 20.6444C83.1146 20.1751 82.8843 19.3929 82.8843 18.2196V12.1183H81.2714V10.5539Z" fill="#E0E0E0"/>
<path d="M92.5617 17.281L93.0993 19.3147H93.1765L93.637 17.281L95.6339 10.5539H97.2469L94.2512 19.9405C94.021 20.6445 93.7907 21.2703 93.5605 21.8961C93.3296 22.5219 93.0993 23.0694 92.7919 23.6169C92.4851 24.0863 92.1777 24.4774 91.8703 24.7903C91.5635 25.1032 91.1024 25.2596 90.7185 25.2596C90.2579 25.2596 89.7968 25.1814 89.4894 25.0249L89.7968 23.6169C89.9505 23.6952 90.1808 23.6952 90.3345 23.6952C90.7184 23.6952 91.1024 23.4605 91.4098 23.0694C91.7938 22.6783 92.024 21.9742 92.2543 20.9574L88.1073 10.5539H89.9505L92.5617 17.281Z" fill="#E0E0E0"/>
<path d="M100.856 18.4545C100.856 18.9239 100.933 19.315 101.086 19.4714C101.24 19.7061 101.47 19.7843 101.778 19.7843C101.931 19.7843 102.162 19.7843 102.315 19.7061C102.546 19.7061 102.776 19.6279 103.006 19.5496L103.16 20.8794C102.93 20.9577 102.622 21.1141 102.238 21.1141C101.854 21.1923 101.547 21.1923 101.24 21.1923C100.625 21.1923 100.088 21.0358 99.7037 20.6448C99.3197 20.2536 99.0895 19.7061 99.0895 18.8457V6.3302H100.702V18.4545H100.856Z" fill="#E0E0E0"/>
<path d="M112.53 20.1751C112.146 20.488 111.609 20.8009 110.994 20.9573C110.38 21.1138 109.688 21.2702 108.997 21.2702C108.229 21.2702 107.538 21.1138 107.001 20.8792C106.463 20.6445 105.925 20.2534 105.618 19.784C105.234 19.3147 105.004 18.7672 104.773 18.0632C104.62 17.3592 104.543 16.6552 104.543 15.7948C104.543 13.9957 104.927 12.6659 105.694 11.7272C106.463 10.7885 107.615 10.3192 108.997 10.3192C109.458 10.3192 109.919 10.3975 110.38 10.4756C110.84 10.5539 111.225 10.7885 111.609 11.1014C111.993 11.4143 112.299 11.8054 112.53 12.353C112.761 12.9005 112.914 13.6045 112.914 14.465C112.914 14.9343 112.837 15.4036 112.761 15.9512H106.232C106.232 16.577 106.309 17.1245 106.386 17.5939C106.539 18.0632 106.693 18.4543 106.923 18.7672C107.154 19.0801 107.538 19.3147 107.922 19.5494C108.306 19.7058 108.844 19.784 109.458 19.784C109.919 19.784 110.38 19.7058 110.84 19.5494C111.301 19.393 111.685 19.1582 111.915 19.0018L112.53 20.1751ZM108.997 11.8054C108.229 11.8054 107.538 12.0401 107.077 12.4312C106.616 12.8223 106.309 13.6045 106.232 14.6214H111.301C111.301 13.6045 111.071 12.8223 110.687 12.4312C110.303 11.9619 109.688 11.8054 108.997 11.8054Z" fill="#E0E0E0"/>
</g>
<defs>
<clipPath id="clip0_301_400">
<rect width="113" height="30" fill="white"/>
</clipPath>
</defs>
</svg>
